<svg width="600" height="800" viewBox="0 0 600 800" fill="none" xmlns="http://www.w3.org/2000/svg">
<rect width="600" height="800" fill="#F59432"/>
<path d="M433.926 386.071C433.649 382.826 432.535 379.708 430.691 377.023C433.387 373.1 434.492 368.299 433.782 363.592C433.072 358.884 430.601 354.623 426.868 351.669C425.675 350.733 424.408 349.894 423.08 349.162C418.116 346.423 412.549 344.961 406.879 344.908C406.722 344.905 406.521 344.904 406.32 344.904C402.088 344.886 397.893 345.69 393.968 347.271C393.648 347.402 393.335 347.544 393.02 347.683V347.653C393.185 343.923 392.331 340.218 390.549 336.937C388.767 333.656 386.125 330.922 382.906 329.029C379.744 327.155 376.131 326.176 372.455 326.198C372.177 326.198 371.892 326.203 371.608 326.214C368.672 326.33 365.796 327.079 363.175 328.408C362.768 328.615 362.37 328.838 361.98 329.071H349.869C346.795 329.073 343.762 329.776 341 331.128C338.239 332.479 335.822 334.443 333.935 336.869C332.188 335.884 330.363 335.044 328.478 334.358C324.346 332.857 319.983 332.091 315.586 332.093C310.364 332.06 305.187 333.07 300.36 335.064C295.76 336.977 291.573 339.76 288.03 343.262C284.475 346.781 281.65 350.967 279.717 355.58C275.739 365.237 275.739 376.075 279.717 385.732C281.539 390.066 284.148 394.024 287.413 397.407C282.604 394.994 277.288 393.763 271.908 393.817H271.664C266.46 393.805 261.327 395.026 256.686 397.38C256.637 392.301 254.588 387.446 250.983 383.868C247.379 380.29 242.51 378.276 237.431 378.264H237.325C234.36 378.284 231.44 378.99 228.793 380.325C226.145 381.661 223.843 383.591 222.065 385.963C220.418 385.072 218.705 384.308 216.942 383.678C212.875 382.228 208.59 381.488 204.273 381.488H204.034C198.812 381.487 193.643 382.528 188.829 384.552C184.239 386.493 180.069 389.302 176.546 392.827C173.014 396.368 170.214 400.571 168.309 405.196C164.392 414.877 164.459 425.714 168.495 435.346C170.457 439.947 173.308 444.116 176.885 447.613C180.45 451.094 184.655 453.852 189.268 455.736C194.022 457.667 199.109 458.643 204.24 458.612H204.515C208.909 458.586 213.264 457.792 217.384 456.266C220.041 455.285 222.574 453.995 224.929 452.421C228.436 455.559 232.975 457.297 237.682 457.302H237.791C242.759 457.283 247.523 455.331 251.077 451.86C251.848 452.469 252.642 453.055 253.477 453.595C258.298 456.681 263.918 458.285 269.641 458.21H269.849C272.592 458.211 275.321 457.823 277.955 457.055L279.791 457.044L283.538 457.02C288.947 456.986 294.141 454.895 298.064 451.171C300.38 452.929 302.917 454.374 305.609 455.47C309.503 457.05 313.669 457.854 317.871 457.837C318.14 457.837 318.411 457.837 318.682 457.829C324.334 457.734 329.875 456.239 334.806 453.476C335.717 452.961 336.598 452.395 337.446 451.782C341.181 454.895 345.889 456.601 350.752 456.601H350.784H350.865L355.883 456.57L368.509 456.492L372.188 456.47C375.62 456.449 378.979 455.47 381.884 453.643C384.789 451.815 387.126 449.212 388.631 446.128C390.136 443.043 390.748 439.599 390.4 436.185C390.052 432.77 388.756 429.521 386.66 426.803L385.473 425.265L393.653 414.641L398.59 408.23C401.125 408.838 403.723 409.144 406.329 409.14C406.528 409.14 406.727 409.14 406.927 409.135C412.579 409.076 418.128 407.616 423.076 404.884C424.405 404.152 425.672 403.313 426.866 402.377C429.309 400.462 431.234 397.968 432.467 395.12C433.7 392.271 434.202 389.16 433.926 386.069" fill="black"/>
<path d="M306.147 360.597C307.17 359.45 308.426 358.533 309.831 357.909C311.341 357.253 312.973 356.927 314.619 356.951C317.516 356.951 319.751 357.516 321.323 358.645C321.346 358.662 321.369 358.679 321.393 358.697C322.861 359.812 324.619 360.481 326.457 360.625C328.295 360.768 330.135 360.38 331.758 359.506L336.351 356.953C335.215 354.26 333.475 351.865 331.267 349.952C329.067 348.042 326.533 346.556 323.793 345.568C321.043 344.566 318.138 344.055 315.211 344.058C311.662 344.022 308.142 344.699 304.859 346.047C301.752 347.332 298.925 349.208 296.534 351.571C294.154 353.927 292.264 356.732 290.973 359.823C289.632 363.043 288.956 366.501 288.984 369.989C288.955 373.477 289.632 376.935 290.973 380.155C292.264 383.246 294.154 386.051 296.536 388.406C298.926 390.769 301.754 392.645 304.86 393.93C308.143 395.279 311.663 395.955 315.212 395.919C318.139 395.922 321.043 395.412 323.793 394.41C326.541 393.42 329.078 391.92 331.27 389.99C333.461 388.076 335.198 385.697 336.353 383.027L331.776 380.481C330.159 379.613 328.328 379.225 326.498 379.363C324.668 379.501 322.915 380.16 321.447 381.261L321.401 381.296C319.78 382.45 317.521 383.027 314.623 383.027C312.966 383.049 311.321 382.723 309.798 382.069C308.385 381.458 307.127 380.54 306.114 379.381C305.076 378.172 304.287 376.77 303.793 375.255C303.236 373.556 302.963 371.776 302.983 369.988C302.963 368.199 303.237 366.42 303.793 364.72C304.291 363.199 305.093 361.796 306.151 360.595" fill="white"/>
<path d="M378.709 357.981H365.449V394.815H378.709V357.981Z" fill="white"/>
<path d="M368.764 353.358C369.695 353.793 370.703 354.036 371.73 354.072C373.257 354.153 374.774 353.784 376.093 353.01C377.428 352.222 378.506 351.064 379.197 349.676C379.7 348.688 379.983 347.601 380.026 346.493C380.111 344.959 379.742 343.434 378.966 342.107C378.269 340.921 377.28 339.932 376.093 339.235C374.77 338.46 373.248 338.091 371.717 338.174C370.608 338.216 369.522 338.498 368.532 339C367.141 339.691 365.98 340.771 365.19 342.108C364.415 343.431 364.047 344.951 364.129 346.482C364.167 347.509 364.411 348.518 364.848 349.448C365.644 351.177 367.034 352.564 368.764 353.358" fill="white"/>
<path d="M410.312 382.107C409.168 382.971 407.767 383.425 406.333 383.396C405.053 383.422 403.79 383.09 402.687 382.439C401.647 381.818 400.794 380.927 400.219 379.86C399.639 378.766 399.335 377.545 399.335 376.306C399.335 375.067 399.639 373.846 400.219 372.752C400.797 371.706 401.651 370.839 402.687 370.245C403.798 369.617 405.057 369.299 406.333 369.324C407.761 369.294 409.159 369.735 410.312 370.577L410.346 370.602C411.398 371.385 412.652 371.851 413.96 371.948C415.268 372.044 416.577 371.766 417.732 371.145L423.867 367.85C422.196 364.068 419.777 361.306 416.61 359.562C413.462 357.824 409.93 356.9 406.334 356.873C403.6 356.804 400.88 357.293 398.341 358.31C395.952 359.26 393.775 360.674 391.935 362.47C390.095 364.266 388.629 366.408 387.621 368.773C386.6 371.16 386.074 373.729 386.074 376.324C386.074 378.92 386.6 381.489 387.621 383.875C388.625 386.219 390.076 388.346 391.891 390.137C393.745 391.954 395.934 393.393 398.337 394.373C400.871 395.414 403.593 395.916 406.331 395.846C409.927 395.82 413.459 394.895 416.607 393.158C419.775 391.415 422.194 388.652 423.864 384.87L417.347 381.372C416.236 380.799 414.983 380.562 413.74 380.687C412.496 380.813 411.316 381.298 410.342 382.081L410.308 382.108" fill="white"/>
<path d="M210.153 430.658C208.54 431.822 206.284 432.412 203.386 432.43C201.729 432.463 200.083 432.146 198.556 431.502C197.139 430.9 195.875 429.989 194.856 428.836C193.81 427.634 193.013 426.237 192.51 424.725C191.408 421.303 191.385 417.626 192.445 414.19C192.933 412.667 193.726 411.258 194.777 410.052C195.793 408.897 197.043 407.972 198.444 407.338C199.95 406.674 201.58 406.338 203.225 406.351C206.123 406.333 208.361 406.884 209.94 408.004C210.383 408.32 210.805 408.664 211.204 409.034C212.179 409.928 213.412 410.489 214.726 410.636C216.04 410.783 217.367 410.509 218.516 409.853L224.957 406.217C223.805 403.534 222.051 401.152 219.831 399.254C217.619 397.356 215.075 395.885 212.327 394.914C209.571 393.929 206.663 393.436 203.736 393.456C200.187 393.443 196.672 394.141 193.398 395.509C190.3 396.814 187.484 398.708 185.108 401.086C182.742 403.456 180.868 406.272 179.597 409.371C176.986 415.905 177.031 423.201 179.722 429.703C181.031 432.786 182.939 435.579 185.334 437.919C187.739 440.268 190.578 442.127 193.692 443.393C196.983 444.721 200.507 445.376 204.055 445.318C206.982 445.303 209.884 444.775 212.628 443.756C215.37 442.748 217.898 441.232 220.08 439.289C222.259 437.362 223.981 434.973 225.12 432.296L218.662 428.756C217.508 428.119 216.181 427.862 214.872 428.024C213.564 428.185 212.339 428.756 211.374 429.655C210.99 430.015 210.583 430.35 210.155 430.658" fill="white"/>
<path d="M243.644 390.19L230.384 390.272L230.715 444.048L243.975 443.967L243.644 390.19Z" fill="white"/>
<path d="M289.067 415.142C287.318 412.243 284.822 409.867 281.841 408.261C278.621 406.546 275.012 405.694 271.365 405.785C267.843 405.753 264.373 406.644 261.301 408.369C258.229 410.094 255.662 412.593 253.856 415.618C252.08 418.579 251.169 421.979 251.227 425.432C251.208 428.845 252.012 432.214 253.572 435.25C255.037 438.129 257.238 440.568 259.951 442.32C262.773 444.102 266.061 445.005 269.397 444.913C272.293 444.895 274.745 444.279 276.752 443.063C277.698 442.491 278.561 441.792 279.318 440.987L279.334 443.747L291.858 443.671L291.744 425.18C291.788 421.651 290.862 418.178 289.067 415.14M277.623 428.879C277.046 429.987 276.169 430.91 275.091 431.542C274.014 432.175 272.78 432.49 271.531 432.454C270.25 432.487 268.985 432.163 267.878 431.518C266.835 430.904 265.976 430.019 265.395 428.957C264.798 427.876 264.486 426.66 264.49 425.425C264.465 424.167 264.761 422.923 265.35 421.811C265.919 420.742 266.766 419.845 267.802 419.217C268.918 418.582 270.178 418.245 271.461 418.237C272.744 418.229 274.008 418.55 275.132 419.171C276.159 419.795 277.003 420.679 277.579 421.735C278.182 422.84 278.494 424.08 278.485 425.339C278.504 426.574 278.207 427.793 277.623 428.881" fill="white"/>
<path d="M321.908 430.779C320.77 431.651 319.371 432.114 317.938 432.093C316.657 432.126 315.393 431.802 314.286 431.158C313.242 430.543 312.384 429.657 311.802 428.594C311.215 427.503 310.904 426.285 310.897 425.046C310.889 423.807 311.185 422.585 311.759 421.486C312.33 420.437 313.178 419.566 314.211 418.966C315.318 418.331 316.575 418.005 317.851 418.023C319.279 417.984 320.679 418.415 321.838 419.25L321.945 419.33C322.92 420.096 324.097 420.564 325.333 420.677C326.568 420.79 327.81 420.542 328.908 419.964L335.373 416.441C333.68 412.67 331.244 409.923 328.067 408.198C324.908 406.479 321.369 405.577 317.773 405.573C315.039 405.521 312.322 406.026 309.789 407.058C307.407 408.023 305.239 409.45 303.411 411.257C301.583 413.063 300.13 415.214 299.137 417.584C298.131 419.977 297.621 422.549 297.637 425.145C297.653 427.74 298.194 430.306 299.23 432.686C300.249 435.024 301.713 437.142 303.54 438.921C305.405 440.727 307.603 442.152 310.013 443.117C312.552 444.142 315.277 444.628 318.014 444.543C321.61 444.492 325.136 443.546 328.273 441.789C331.43 440.028 333.831 437.25 335.478 433.457L328.941 429.999C327.826 429.433 326.572 429.203 325.329 429.337C324.086 429.47 322.908 429.962 321.939 430.751L321.906 430.778" fill="white"/>
<path d="M383.27 406.274L367.58 406.371L358.886 418.212C358.49 418.748 358.139 419.317 357.838 419.913L355.285 419.928L355.131 394.815H355.136V341.037H341.876V389.586H341.839L342.171 443.361L355.43 443.279L355.346 429.504L357.962 429.488C358.257 430.049 358.592 430.589 358.965 431.102L367.878 443.203L383.421 443.107L369.15 424.611L383.27 406.274Z" fill="white"/>
<path d="M405.088 415.973L423.86 411.018C424.432 410.867 425.031 410.843 425.613 410.949C426.195 411.055 426.747 411.287 427.23 411.63C427.713 411.972 428.114 412.417 428.406 412.932C428.698 413.447 428.873 414.019 428.92 414.61L429.463 421.534C429.509 422.124 429.425 422.718 429.216 423.272C429.008 423.826 428.681 424.328 428.257 424.741C427.834 425.155 427.324 425.471 426.765 425.666C426.206 425.861 425.611 425.931 425.022 425.871L405.707 423.902C404.765 423.806 403.887 423.382 403.226 422.705C402.564 422.028 402.162 421.14 402.088 420.197C402.014 419.253 402.273 418.314 402.821 417.542C403.368 416.77 404.17 416.214 405.085 415.973" fill="black"/>
<path d="M405.867 427.086L424.603 432.181C425.174 432.337 425.704 432.615 426.156 432.998C426.607 433.381 426.969 433.858 427.216 434.396C427.463 434.935 427.588 435.52 427.584 436.112C427.579 436.704 427.445 437.288 427.19 437.822L424.198 444.089C423.943 444.623 423.574 445.095 423.116 445.471C422.659 445.847 422.124 446.118 421.551 446.265C420.977 446.411 420.378 446.43 419.797 446.319C419.215 446.209 418.665 445.972 418.184 445.626L402.44 434.264C401.673 433.71 401.124 432.904 400.889 431.987C400.655 431.07 400.75 430.099 401.158 429.245C401.566 428.391 402.261 427.707 403.121 427.312C403.982 426.918 404.954 426.838 405.867 427.087" fill="black"/>
<path d="M401 437.095L414.678 450.875C415.096 451.295 415.416 451.802 415.615 452.359C415.815 452.916 415.89 453.511 415.835 454.101C415.779 454.69 415.595 455.26 415.295 455.771C414.994 456.281 414.585 456.719 414.097 457.054L408.372 460.986C407.884 461.321 407.328 461.545 406.744 461.642C406.16 461.739 405.562 461.706 404.992 461.546C404.422 461.386 403.894 461.103 403.446 460.717C402.997 460.33 402.639 459.85 402.397 459.31L394.444 441.597C394.057 440.734 393.984 439.762 394.24 438.851C394.496 437.939 395.064 437.147 395.844 436.611C396.624 436.075 397.567 435.83 398.51 435.919C399.452 436.007 400.333 436.423 401 437.095" fill="black"/>
</svg>
