<svg width="600" height="800" viewBox="0 0 600 800" fill="none" xmlns="http://www.w3.org/2000/svg">
<rect width="600" height="800" fill="#0E3744"/>
<path fill-rule="evenodd" clip-rule="evenodd" d="M214.228 376.883H210.884C208.803 376.883 207.465 377.476 206.796 378.588L195.351 398.751L184.055 378.662C183.386 377.476 182.049 376.957 179.968 376.957H176.623C174.022 376.957 172.759 377.624 172.759 379.033V420.1C172.759 421.434 174.022 422.176 176.623 422.176H178.481C181.082 422.176 182.346 421.508 182.346 420.1V393.488L182.569 393.414L191.858 410.018C192.453 410.834 193.345 411.205 194.46 411.205H196.318C197.432 411.205 198.324 410.834 198.919 410.018L208.208 393.414L208.431 393.488V420.026C208.431 421.36 209.695 422.101 212.296 422.101H214.154C216.755 422.101 218.018 421.434 218.018 420.026V378.959C218.093 377.624 216.829 376.883 214.228 376.883Z" fill="white"/>
<path fill-rule="evenodd" clip-rule="evenodd" d="M294.789 377.031H264.393C263.129 377.031 262.46 378.069 262.46 380.219V382.22C262.46 384.37 263.129 385.408 264.393 385.408H274.649V419.952C274.649 421.286 275.912 422.027 278.513 422.027H280.743C283.344 422.027 284.607 421.36 284.607 419.952V385.408H294.863C296.126 385.408 296.795 384.37 296.795 382.22V380.219C296.721 378.143 296.126 377.031 294.789 377.031Z" fill="white"/>
<path fill-rule="evenodd" clip-rule="evenodd" d="M329.941 405.423C329.347 404.088 328.678 402.828 327.786 401.642C326.894 400.53 326.077 399.789 325.259 399.492V399.27C327.563 398.38 329.421 397.12 330.759 395.341C332.096 393.562 332.765 391.486 332.765 389.114C332.765 381.108 327.414 377.031 316.713 377.031H304.153C302.444 377.031 301.552 377.921 301.552 379.626V420.026C301.552 421.36 302.815 422.101 305.416 422.101H307.571C310.173 422.101 311.436 421.434 311.436 420.026V404.385H313.963C315.895 404.385 317.307 404.681 318.125 405.274C318.942 405.867 319.76 406.831 320.503 408.239L325.556 420.767C325.928 421.657 327.117 422.101 329.272 422.101H331.873C334.475 422.101 335.738 421.657 335.738 420.841C335.738 420.619 335.664 420.174 335.441 419.655L329.941 405.423ZM321.172 394.229C320.206 395.267 319.016 395.86 317.679 395.86H311.585V385.482H317.233C318.942 385.482 320.206 385.927 321.172 386.816C322.138 387.706 322.584 388.892 322.584 390.374C322.658 391.857 322.138 393.191 321.172 394.229Z" fill="white"/>
<path fill-rule="evenodd" clip-rule="evenodd" d="M346.663 376.883H344.433C341.832 376.883 340.569 377.624 340.569 379.033V420.1C340.569 421.508 341.832 422.25 344.433 422.25H346.663C349.264 422.25 350.527 421.508 350.527 420.1V378.959C350.527 377.55 349.189 376.883 346.663 376.883Z" fill="white"/>
<path fill-rule="evenodd" clip-rule="evenodd" d="M389.247 411.501C389.098 411.501 388.503 411.724 387.537 412.168C384.713 413.428 381.741 414.096 378.694 414.096C371.336 414.096 367.694 409.277 367.694 399.566C367.694 389.856 371.41 385.037 378.842 385.037C382.038 385.037 384.713 385.556 386.943 386.594C387.686 386.965 388.132 387.113 388.281 387.113C389.024 387.113 389.915 386.372 390.956 384.815C391.996 383.258 392.442 381.998 392.442 381.108C392.442 379.848 390.956 378.736 388.058 377.921C385.159 377.031 382.112 376.661 378.991 376.661C364.647 376.661 357.513 384.296 357.513 399.492C357.513 407.424 359.222 413.206 362.715 416.987C366.134 420.693 371.485 422.62 378.694 422.62C381.889 422.62 385.085 422.176 388.281 421.212C391.476 420.248 393.037 418.914 393.037 417.209C393.037 416.468 392.665 415.282 391.848 413.873C390.956 412.242 390.138 411.501 389.247 411.501Z" fill="white"/>
<path fill-rule="evenodd" clip-rule="evenodd" d="M417.265 385.408H424.994C426.257 385.408 426.926 384.37 426.926 382.22V380.219C426.926 378.069 426.257 377.031 424.994 377.031H401.435C399.726 377.031 398.834 377.921 398.834 379.626V385.482H408.718H417.265V385.408Z" fill="white"/>
<path fill-rule="evenodd" clip-rule="evenodd" d="M414.069 403.125H423.21C424.473 403.125 425.142 402.087 425.142 399.937V397.936C425.142 395.786 424.473 394.748 423.21 394.748H398.834V403.125H408.718H414.069Z" fill="white"/>
<path fill-rule="evenodd" clip-rule="evenodd" d="M425.068 413.577H398.908V419.433C398.908 421.138 399.8 422.027 401.509 422.027H425.068C426.331 422.027 427 420.99 427 418.84V416.838C427 414.615 426.331 413.577 425.068 413.577Z" fill="white"/>
<path fill-rule="evenodd" clip-rule="evenodd" d="M247.597 378.292C247.225 377.402 246.036 376.957 243.955 376.957H240.611C238.53 376.957 237.266 377.402 236.969 378.292L222.849 419.507C222.7 420.1 222.626 420.471 222.626 420.693C222.626 421.657 223.963 422.102 226.565 422.102H229.166C230.875 422.102 231.841 421.657 232.138 420.767L234.74 412.91L237.489 404.459C237.489 404.459 241.874 390.968 242.246 388.966H242.469L247.076 404.459L249.826 412.91L252.427 420.767C252.724 421.657 253.914 422.102 255.994 422.102H258.819C260.974 422.102 262.014 421.657 262.014 420.693C262.014 420.323 261.94 419.952 261.791 419.507L247.597 378.292Z" fill="white"/>
</svg>
